<svg width="2190" height="675" viewBox="0 0 2190 675" fill="none" xmlns="http://www.w3.org/2000/svg">
<path d="M25.8498 166C20.5232 166 16.2932 164.59 13.1598 161.77C10.1832 158.95 8.69482 155.112 8.69482 150.255C8.69482 149.472 8.85149 148.14 9.16482 146.26L34.7798 1.50006H109.51C123.296 1.50006 134.263 4.39839 142.41 10.1951C150.713 15.8351 154.865 23.5117 154.865 33.2251C154.865 35.2617 154.63 37.3767 154.16 39.5701L152.045 51.5551C150.948 57.0384 148.676 62.2867 145.23 67.3001C141.783 72.1567 137.475 75.9951 132.305 78.8151V79.0501C138.415 81.2434 143.193 84.7684 146.64 89.6251C150.243 94.3251 152.045 99.8084 152.045 106.075C152.045 108.582 151.888 110.54 151.575 111.95L149.46 123.7C147.267 137.173 141.47 147.592 132.07 154.955C122.67 162.318 110.606 166 95.8798 166H25.8498ZM101.52 71.7651C107.316 71.7651 112.33 69.8851 116.56 66.1251C120.79 62.3651 123.453 57.5084 124.55 51.5551L126.195 41.9201C126.351 41.2934 126.43 40.2751 126.43 38.8651C126.43 34.7917 124.785 31.5801 121.495 29.2301C118.205 26.7234 113.661 25.4701 107.865 25.4701H57.8098L49.8198 71.7651H101.52ZM94.4698 142.03C102.146 142.03 108.335 140.307 113.035 136.86C117.892 133.413 120.947 128.635 122.2 122.525L124.315 111.95C124.471 111.167 124.55 110.07 124.55 108.66C124.55 104.43 122.905 100.983 119.615 98.3201C116.481 95.6567 112.173 94.3251 106.69 94.3251H45.8248L37.3648 142.03H94.4698Z" fill="white"/>
<path d="M205.546 167.88C194.579 167.88 185.884 164.825 179.461 158.715C173.038 152.448 169.826 144.145 169.826 133.805C169.826 130.358 170.139 127.147 170.766 124.17L183.926 48.7351H210.951L197.556 124.64C197.243 127.147 197.086 128.87 197.086 129.81C197.086 134.353 198.183 137.957 200.376 140.62C202.726 143.127 205.938 144.38 210.011 144.38H223.876C229.986 144.38 235.783 142.03 241.266 137.33C246.749 132.63 251.136 126.363 254.426 118.53L266.646 48.7351H293.671L272.991 166H247.611L250.431 150.02C245.731 155.347 240.639 159.655 235.156 162.945C229.829 166.235 224.894 167.88 220.351 167.88H205.546Z" fill="white"/>
<path d="M343.93 35.5751C339.386 35.5751 335.705 34.3217 332.885 31.8151C330.221 29.3084 328.89 26.0184 328.89 21.9451C328.89 15.8351 330.77 10.9001 334.53 7.14006C338.29 3.2234 343.303 1.26506 349.57 1.26506C354.113 1.26506 357.716 2.51839 360.38 5.02506C363.2 7.53173 364.61 10.8217 364.61 14.8951C364.61 21.0051 362.73 26.0184 358.97 29.9351C355.21 33.6951 350.196 35.5751 343.93 35.5751ZM327.95 48.7351H354.975L334.295 166H307.27L327.95 48.7351Z" fill="white"/>
<path d="M406.509 166C395.386 166 387.161 164.042 381.834 160.125C376.508 156.208 373.844 149.942 373.844 141.325C373.844 137.878 374.158 134.51 374.784 131.22L397.579 1.50006H424.604L401.809 130.045C401.496 131.925 401.339 133.335 401.339 134.275C401.339 137.095 402.123 139.21 403.689 140.62C405.413 142.03 408.154 142.735 411.914 142.735H423.194L419.199 166H406.509Z" fill="white"/>
<path d="M485.73 166C474.607 166 466.382 163.885 461.055 159.655C455.728 155.425 453.065 148.845 453.065 139.915C453.065 136.155 453.378 132.473 454.005 128.87L464.11 72.0001H443.43L447.425 48.7351H468.81L475.155 13.2501H501.475L495.13 48.7351H525.445L521.45 72.0001H491.135L481.03 127.93C480.717 130.437 480.56 132.082 480.56 132.865C480.56 136.312 481.422 138.818 483.145 140.385C484.868 141.952 487.61 142.735 491.37 142.735H508.995L504.765 166H485.73Z" fill="white"/>
<path d="M623.831 72.0001H603.621L607.616 48.7351H627.826L629.471 40.5101C631.821 27.3501 637.226 17.4017 645.686 10.6651C654.303 3.9284 665.74 0.560059 679.996 0.560059H694.096L689.866 23.5901H676.236C670.753 23.5901 666.366 24.9217 663.076 27.5851C659.786 30.0917 657.515 34.4784 656.261 40.7451L654.851 48.7351H683.051L679.056 72.0001H650.856L634.171 166H607.146L623.831 72.0001Z" fill="white"/>
<path d="M723.401 167.88C710.085 167.88 699.431 164.512 691.441 157.775C683.608 150.882 679.691 141.795 679.691 130.515C679.691 127.695 679.926 124.875 680.396 122.055L685.566 92.9151C688.23 78.5017 694.261 67.2217 703.661 59.0751C713.061 50.9284 724.811 46.8551 738.911 46.8551H759.356C772.986 46.8551 783.718 50.2234 791.551 56.9601C799.541 63.6967 803.536 72.7051 803.536 83.9851C803.536 85.8651 803.223 88.8417 802.596 92.9151L797.426 122.055C794.763 136.468 788.731 147.748 779.331 155.895C770.088 163.885 758.26 167.88 743.846 167.88H723.401ZM744.551 144.615C751.288 144.615 757.006 142.422 761.706 138.035C766.406 133.648 769.383 127.773 770.636 120.41L775.336 94.3251C775.65 93.0717 775.806 91.1917 775.806 88.6851C775.806 83.0451 774.161 78.5801 770.871 75.2901C767.738 71.8434 763.43 70.1201 757.946 70.1201H738.206C731.313 70.1201 725.595 72.2351 721.051 76.4651C716.508 80.6951 713.61 86.6484 712.356 94.3251L707.656 120.41C707.343 121.82 707.186 123.778 707.186 126.285C707.186 131.925 708.753 136.39 711.886 139.68C715.02 142.97 719.328 144.615 724.811 144.615H744.551Z" fill="white"/>
<path d="M835.717 48.7351H860.862L858.042 64.7151C862.272 59.7017 867.363 55.7067 873.317 52.7301C879.27 49.7534 885.38 48.2651 891.647 48.2651H906.687L902.457 71.7651H888.357C879.427 71.7651 871.75 74.5067 865.327 79.9901C858.903 85.4734 854.908 92.6017 853.342 101.375L842.062 166H815.037L835.717 48.7351Z" fill="white"/>
<path d="M741.775 489.972H824.229C835.811 489.972 845.2 499.431 845.2 511.1C845.2 522.769 835.811 532.229 824.229 532.229H724.776C723.223 532.229 721.722 532.787 720.542 533.804L690.514 559.688C685.917 563.65 688.698 571.235 694.748 571.235H819.248C819.299 571.235 819.341 571.193 819.341 571.142C819.341 571.087 819.387 571.044 819.441 571.048C821.008 571.172 822.591 571.235 824.189 571.235C857.215 571.235 883.988 544.312 883.988 511.1C883.988 479.562 859.845 453.694 829.131 451.168C829.078 451.163 829.038 451.119 829.038 451.066C829.038 451.01 828.993 450.965 828.937 450.965H740.109C728.527 450.965 719.138 441.506 719.138 429.837C719.138 418.168 728.527 408.708 740.109 408.708H839.424C841.06 408.708 842.635 408.088 843.837 406.972L871.721 381.089C876.083 377.04 873.239 369.702 867.308 369.702H741.775C741.769 369.702 741.764 369.706 741.764 369.712C741.764 369.718 741.759 369.723 741.753 369.723C741.22 369.709 740.685 369.702 740.148 369.702C707.122 369.702 680.35 396.625 680.35 429.837C680.35 463.048 707.122 489.972 740.148 489.972C740.685 489.972 741.22 489.964 741.753 489.95C741.759 489.95 741.764 489.955 741.764 489.961C741.764 489.967 741.769 489.972 741.775 489.972Z" fill="white"/>
<path d="M1222.02 369.702C1218.41 369.702 1215.49 372.639 1215.49 376.263V564.674C1215.49 568.297 1218.41 571.235 1222.02 571.235H1373C1374.8 571.235 1376.53 570.484 1377.76 569.161L1396.66 548.896C1400.57 544.705 1397.61 537.846 1391.9 537.846H1260.07C1256.47 537.846 1253.54 534.909 1253.54 531.285V376.263C1253.54 372.639 1250.62 369.702 1247.02 369.702H1222.02Z" fill="white"/>
<path fill-rule="evenodd" clip-rule="evenodd" d="M980.193 369.702C980.183 369.702 980.175 369.71 980.175 369.719C980.175 369.729 980.168 369.737 980.158 369.737C960.861 370.573 945.365 386.102 944.531 405.441C944.53 405.45 944.522 405.458 944.513 405.458C944.508 405.458 944.503 405.46 944.5 405.464C944.497 405.467 944.495 405.471 944.495 405.475V532.212C944.495 532.221 944.503 532.229 944.512 532.229C944.522 532.229 944.53 532.237 944.529 532.246C944.507 532.779 944.495 533.315 944.495 533.854C944.495 553.949 960.317 570.34 980.158 571.2C980.168 571.2 980.175 571.208 980.175 571.217L980.177 571.225L980.182 571.231C980.185 571.234 980.189 571.235 980.193 571.235H1117.19C1117.2 571.235 1117.21 571.227 1117.21 571.217V571.207L1117.22 571.202L1117.23 571.2C1137.07 570.34 1152.89 553.949 1152.89 533.854C1152.89 533.315 1152.88 532.779 1152.86 532.246C1152.86 532.237 1152.86 532.229 1152.87 532.229C1152.88 532.229 1152.89 532.221 1152.89 532.212V405.475C1152.89 405.466 1152.88 405.458 1152.87 405.458C1152.86 405.458 1152.85 405.45 1152.85 405.441C1152.02 386.102 1136.52 370.573 1117.23 369.737C1117.22 369.737 1117.21 369.729 1117.21 369.719C1117.21 369.71 1117.2 369.702 1117.19 369.702H980.193ZM1005.73 405.458L1005.72 405.462V405.469C1005.72 405.475 1005.71 405.48 1005.71 405.48C993.647 406.006 983.963 415.774 983.441 427.939C983.441 427.944 983.436 427.949 983.43 427.949C983.424 427.949 983.419 427.954 983.419 427.96V507.682C983.419 507.688 983.424 507.692 983.43 507.692C983.436 507.692 983.441 507.697 983.44 507.703C983.426 508.039 983.419 508.376 983.419 508.715C983.419 521.355 993.308 531.666 1005.71 532.206C1005.71 532.207 1005.72 532.212 1005.72 532.217V532.224V532.227L1005.73 532.229H1091.66V532.228V532.223L1091.67 532.217C1091.67 532.212 1091.67 532.207 1091.68 532.206C1104.08 531.666 1113.97 521.355 1113.97 508.715C1113.97 508.376 1113.96 508.039 1113.95 507.703V507.701V507.698L1113.96 507.692C1113.96 507.692 1113.97 507.688 1113.97 507.682V427.96C1113.97 427.954 1113.96 427.949 1113.96 427.949C1113.95 427.949 1113.94 427.944 1113.94 427.939C1113.42 415.774 1103.74 406.006 1091.68 405.48C1091.67 405.48 1091.67 405.475 1091.67 405.469L1091.66 405.463V405.459V405.458H1005.73Z" fill="white"/>
<path fill-rule="evenodd" clip-rule="evenodd" d="M1616.21 564.674C1616.21 568.297 1619.1 571.235 1622.68 571.235H1648.28C1651.86 571.235 1654.76 568.297 1654.76 564.674V408.725C1654.76 408.716 1654.75 408.708 1654.74 408.708L1654.73 408.706V408.704C1654.73 408.7 1654.72 408.696 1654.72 408.69C1654.75 408.157 1654.76 407.621 1654.76 407.083C1654.76 386.988 1639.09 370.597 1619.43 369.737C1619.43 369.737 1619.42 369.729 1619.42 369.719C1619.42 369.71 1619.41 369.702 1619.4 369.702H1487.88C1487.87 369.702 1487.86 369.709 1487.86 369.719C1487.86 369.728 1487.85 369.736 1487.84 369.736C1487.32 369.713 1486.79 369.702 1486.25 369.702C1465.85 369.702 1449.31 386.438 1449.31 407.083C1449.31 407.621 1449.32 408.157 1449.34 408.69C1449.34 408.7 1449.33 408.708 1449.32 408.708C1449.31 408.708 1449.31 408.716 1449.31 408.725V564.674C1449.31 568.297 1452.21 571.235 1455.78 571.235H1481.39C1484.96 571.235 1487.86 568.297 1487.86 564.674V499.784C1487.86 496.16 1490.76 493.222 1494.33 493.222H1609.73C1613.31 493.222 1616.21 496.16 1616.21 499.784V564.674ZM1487.86 457.406V424.961C1487.86 412.394 1497.93 402.207 1510.35 402.207H1593.72C1606.14 402.207 1616.21 412.394 1616.21 424.961V457.406C1616.21 461.03 1613.31 463.967 1609.73 463.967H1494.33C1490.76 463.967 1487.86 461.03 1487.86 457.406Z" fill="white"/>
<path fill-rule="evenodd" clip-rule="evenodd" d="M2156.72 571.235C2153.11 571.235 2150.18 568.297 2150.18 564.674V499.784C2150.18 496.16 2147.25 493.222 2143.65 493.222H2026.97C2023.36 493.222 2020.44 496.16 2020.44 499.784V564.674C2020.44 568.297 2017.51 571.235 2013.9 571.235H1988.05C1984.44 571.235 1981.51 568.297 1981.51 564.674V408.725V408.721L1981.52 408.715C1981.52 408.711 1981.52 408.708 1981.53 408.708C1981.54 408.708 1981.55 408.7 1981.55 408.69C1981.52 408.157 1981.51 407.621 1981.51 407.083C1981.51 386.438 1998.21 369.702 2018.81 369.702C2019.35 369.702 2019.89 369.713 2020.42 369.736C2020.43 369.736 2020.44 369.728 2020.44 369.719C2020.44 369.709 2020.44 369.702 2020.45 369.702H2153.41C2153.42 369.702 2153.42 369.71 2153.42 369.719C2153.42 369.729 2153.43 369.737 2153.44 369.737C2173.28 370.597 2189.1 386.988 2189.1 407.083C2189.1 407.621 2189.09 408.157 2189.07 408.69C2189.07 408.7 2189.08 408.708 2189.09 408.708C2189.09 408.708 2189.1 408.71 2189.1 408.713C2189.1 408.716 2189.1 408.721 2189.1 408.725V564.674C2189.1 568.297 2186.18 571.235 2182.57 571.235H2156.72ZM2020.44 424.961V457.406C2020.44 461.03 2023.36 463.967 2026.97 463.967H2143.65C2147.25 463.967 2150.18 461.03 2150.18 457.406V424.961C2150.18 412.394 2140.02 402.207 2127.48 402.207H2043.14C2030.6 402.207 2020.44 412.394 2020.44 424.961Z" fill="white"/>
<path d="M1751.14 369.702C1753.04 369.702 1754.84 370.544 1756.07 372.006L1870.9 508.904C1874.81 513.545 1882.3 510.746 1882.3 504.646V376.263C1882.3 372.639 1885.2 369.702 1888.78 369.702H1914.38C1917.96 369.702 1920.86 372.639 1920.86 376.263V564.674C1920.86 568.297 1917.96 571.235 1914.38 571.235H1882.55C1882.41 571.235 1882.3 571.125 1882.3 570.99C1882.3 570.931 1882.28 570.873 1882.24 570.829L1765.48 434.885C1761.54 430.319 1754.13 433.139 1754.13 439.201V564.674C1754.13 568.297 1751.23 571.235 1747.65 571.235H1721.88C1718.31 571.235 1715.41 568.297 1715.41 564.674V376.263C1715.41 372.639 1718.31 369.702 1721.88 369.702H1751.14Z" fill="white"/>
<path d="M85.0529 578.174C88.2458 574.984 92.5747 573.192 97.0884 573.192H513.548C521.135 573.192 524.933 582.365 519.566 587.728L437.275 669.954C434.082 673.144 429.753 674.937 425.239 674.937H8.77891C1.1923 674.937 -2.60553 665.763 2.76114 660.4L85.0529 578.174Z" fill="url(#paint0_linear)"/>
<path d="M85.0529 270.982C88.2458 267.792 92.5747 266 97.0884 266H513.548C521.135 266 524.933 275.174 519.566 280.536L437.275 362.762C434.082 365.953 429.753 367.745 425.239 367.745H8.77891C1.1923 367.745 -2.60553 358.571 2.76114 353.209L85.0529 270.982Z" fill="url(#paint1_linear)"/>
<path d="M437.275 423.6C434.082 420.41 429.753 418.617 425.239 418.617H8.77891C1.1923 418.617 -2.60554 427.791 2.76114 433.154L85.0529 515.38C88.2458 518.57 92.5747 520.362 97.0884 520.362H513.548C521.135 520.362 524.933 511.188 519.566 505.826L437.275 423.6Z" fill="url(#paint2_linear)"/>
<defs>
<linearGradient id="paint0_linear" x1="353.037" y1="153.826" x2="64.8108" y2="705.895" gradientUnits="userSpaceOnUse">
<stop stop-color="#00FFA3"/>
<stop offset="1" stop-color="#DC1FFF"/>
</linearGradient>
<linearGradient id="paint1_linear" x1="353.037" y1="153.826" x2="64.8108" y2="705.895" gradientUnits="userSpaceOnUse">
<stop stop-color="#00FFA3"/>
<stop offset="1" stop-color="#DC1FFF"/>
</linearGradient>
<linearGradient id="paint2_linear" x1="353.037" y1="153.826" x2="64.8109" y2="705.895" gradientUnits="userSpaceOnUse">
<stop stop-color="#00FFA3"/>
<stop offset="1" stop-color="#DC1FFF"/>
</linearGradient>
</defs>
</svg>
